<?xml version="1.0" encoding="utf-8"?>
<!-- Generator: Adobe Illustrator 24.3.0, SVG Export Plug-In . SVG Version: 6.00 Build 0)  -->
<svg version="1.1" id="Layer_1" xmlns="http://www.w3.org/2000/svg" xmlns:xlink="http://www.w3.org/1999/xlink" x="0px" y="0px"
	 viewBox="0 0 362.4 54.9" style="enable-background:new 0 0 362.4 54.9;" xml:space="preserve">
<style type="text/css">
	.st0{fill:#FFFFFF;}
	.st1{fill:#074881;}
</style>
<rect x="2.9" y="4" class="st0" width="48.7" height="47.3"/>
<g>
	<g>
		<path class="st0" d="M66.7,14.7c0.6-0.3,1.4-0.8,2.4-1.5s2.3-1.4,3.8-2.1s3.2-1.3,5.1-1.8s4-0.8,6.3-0.8c2,0,3.6,0.4,4.9,1.3
			c1.3,0.8,2.4,2,3.1,3.6c0.8-0.5,1.8-1.1,2.8-1.7c1-0.6,2.2-1.1,3.4-1.5c1.2-0.5,2.5-0.8,3.9-1.1s2.9-0.5,4.4-0.5
			c2.1,0,3.8,0.4,5.2,1.2c1.4,0.8,2.4,1.9,3.2,3.2c0.8,1.3,1.3,2.8,1.6,4.4c0.3,1.6,0.4,3.2,0.4,4.8v25.4h-4.1v-23
			c0-0.8,0-1.6,0-2.5s0-1.8-0.1-2.7c-0.1-0.9-0.3-1.8-0.6-2.6c-0.3-0.9-0.7-1.6-1.2-2.3c-0.5-0.6-1.2-1.2-2.1-1.6
			c-0.9-0.4-2-0.6-3.3-0.6c-1.2,0-2.4,0.2-3.6,0.5s-2.4,0.8-3.5,1.3s-2.1,1-3,1.6s-1.6,1.1-2.2,1.5c0.4,1.7,0.5,3.6,0.5,5.7v24.7h-4
			V22.9c0-1,0-2.2-0.1-3.4S89.5,17,89.1,16c-0.5-1.1-1.2-2-2.1-2.8c-1-0.7-2.3-1.1-4.1-1.1c-1.2,0-2.4,0.2-3.6,0.5s-2.3,0.7-3.4,1.1
			c-1.1,0.4-2,0.9-2.9,1.4s-1.6,0.9-2.1,1.4v31h-4.2C66.7,47.5,66.7,14.7,66.7,14.7z"/>
		<path class="st0" d="M129.8,30c0.1,2.2,0.5,4.2,1.1,6s1.4,3.3,2.5,4.5s2.5,2.2,4.2,2.8s3.7,1,6,1c1.8,0,3.5-0.3,5.1-0.8
			c1.7-0.5,3.1-1.2,4.4-1.9l1.6,3.1c-1,0.5-1.9,1-2.9,1.4s-1.9,0.8-2.8,1s-1.9,0.5-3,0.6c-1,0.1-2.2,0.2-3.4,0.2
			c-2.8,0-5.3-0.5-7.4-1.4c-2.1-0.9-3.9-2.2-5.3-4c-1.4-1.7-2.5-3.9-3.2-6.4s-1.1-5.4-1.1-8.7c0-3,0.4-5.6,1.2-8
			c0.8-2.4,1.9-4.4,3.3-6s3.2-2.9,5.2-3.8c2-0.9,4.3-1.3,6.8-1.3c1.8,0,3.6,0.3,5.3,0.9c1.7,0.6,3.2,1.4,4.5,2.5s2.4,2.3,3.2,3.8
			s1.2,3.1,1.2,4.9c0,1.5-0.2,2.8-0.6,4c-0.4,1.2-1.1,2.2-2.1,3s-2.2,1.4-3.7,1.8s-3.4,0.6-5.7,0.6h-14.4L129.8,30L129.8,30z
			 M142.1,12.1c-1.8,0-3.4,0.3-4.9,1s-2.7,1.6-3.8,2.8s-1.9,2.7-2.5,4.5c-0.6,1.7-1,3.7-1.2,5.8h14c1.4,0,2.6-0.1,3.7-0.2
			c1.1-0.1,2-0.4,2.8-0.7c0.8-0.4,1.3-0.9,1.7-1.6s0.6-1.6,0.6-2.8c0-1.6-0.3-2.9-1-4s-1.5-2-2.5-2.8c-1-0.7-2.2-1.2-3.4-1.6
			C144.4,12.3,143.3,12.1,142.1,12.1z"/>
		<path class="st0" d="M161.6,27.7c0-3.5,0.4-6.4,1.3-8.9c0.8-2.4,2-4.4,3.4-6c1.5-1.5,3.1-2.7,5.1-3.4c1.9-0.7,4-1.1,6.2-1.1
			c1.8,0,3.7,0.2,5.5,0.7c1.9,0.5,3.8,1.3,5.8,2.5l-1.6,3c-1.6-0.9-3.3-1.5-5-2c-1.7-0.4-3.3-0.6-4.7-0.6c-4,0-6.9,1.4-9,4.1
			s-3.1,6.7-3.1,11.8c0,2.5,0.2,4.7,0.6,6.7c0.4,2,1.1,3.7,2.1,5.1c1,1.4,2.3,2.5,3.8,3.3c1.6,0.8,3.5,1.1,5.8,1.1
			c1.7,0,3.3-0.2,4.9-0.7s3.1-1.1,4.5-1.9l1.6,3c-2,1.2-4,2-5.9,2.5s-3.7,0.7-5.3,0.7c-2.8,0-5.2-0.5-7.3-1.4c-2-0.9-3.7-2.2-5-4
			c-1.3-1.7-2.3-3.9-2.9-6.4C161.9,33.7,161.6,30.9,161.6,27.7z"/>
		<path class="st0" d="M193.5,27.8c0-3.1,0.5-5.8,1.4-8.2c1-2.4,2.2-4.4,3.9-6.1c1.6-1.7,3.5-2.9,5.6-3.8c2.1-0.9,4.4-1.3,6.8-1.3
			c1.4,0,2.8,0.1,4,0.3s2.4,0.4,3.5,0.7s2.1,0.6,3.1,1s1.9,0.7,2.7,1.1v35.9h-3.3l-0.7-3.5c-0.9,0.6-1.8,1.2-2.6,1.7
			s-1.7,0.9-2.6,1.3c-0.9,0.3-1.9,0.6-3,0.8S210,48,208.6,48c-2.1,0-4.1-0.4-5.9-1.1c-1.8-0.8-3.4-2-4.8-3.6
			c-1.4-1.6-2.5-3.7-3.2-6.2C193.9,34.5,193.5,31.4,193.5,27.8z M197.5,28c0,2.8,0.3,5.2,0.8,7.2c0.6,2.1,1.4,3.8,2.4,5.1
			c1,1.4,2.2,2.4,3.7,3c1.4,0.7,3,1,4.8,1c1.1,0,2.3-0.1,3.4-0.3c1.1-0.2,2.1-0.5,3.1-0.9s1.9-0.8,2.7-1.3s1.5-1.1,2.2-1.7V13.9
			c-0.2-0.1-0.6-0.3-1.2-0.5c-0.6-0.2-1.2-0.4-2-0.6c-0.8-0.2-1.7-0.4-2.6-0.5c-0.9-0.1-1.9-0.2-2.8-0.2c-2.1,0-4.1,0.4-5.8,1.1
			c-1.8,0.7-3.3,1.8-4.6,3.1c-1.3,1.4-2.3,3-3,5C197.9,23.3,197.5,25.5,197.5,28z"/>
		<path class="st0" d="M235,14.7c0.6-0.3,1.4-0.8,2.4-1.5s2.3-1.4,3.8-2.1s3.2-1.3,5.1-1.8c1.9-0.5,4-0.8,6.3-0.8
			c2,0,3.6,0.4,4.9,1.3c1.3,0.8,2.4,2,3.1,3.6c0.8-0.5,1.8-1.1,2.8-1.7c1-0.6,2.2-1.1,3.4-1.5c1.2-0.5,2.5-0.8,3.9-1.1
			s2.9-0.5,4.4-0.5c2.1,0,3.8,0.4,5.2,1.2c1.4,0.8,2.4,1.9,3.2,3.2c0.8,1.3,1.3,2.8,1.6,4.4c0.3,1.6,0.4,3.2,0.4,4.8v25.4h-4.1v-23
			c0-0.8,0-1.6,0-2.5s0-1.8-0.1-2.7c-0.1-0.9-0.3-1.8-0.6-2.6c-0.3-0.9-0.7-1.6-1.2-2.3c-0.5-0.6-1.2-1.2-2.1-1.6
			c-0.9-0.4-2-0.6-3.3-0.6c-1.2,0-2.4,0.2-3.6,0.5s-2.4,0.8-3.5,1.3s-2.1,1-3,1.6s-1.6,1.1-2.2,1.5c0.4,1.7,0.5,3.6,0.5,5.7v24.7
			h-4.1V22.9c0-1,0-2.2-0.1-3.4s-0.4-2.4-0.8-3.5c-0.5-1.1-1.2-2-2.1-2.8c-1-0.7-2.3-1.1-4.1-1.1c-1.2,0-2.4,0.2-3.6,0.5
			c-1.2,0.3-2.3,0.7-3.4,1.1c-1.1,0.4-2,0.9-2.9,1.4s-1.6,0.9-2.1,1.4v31H235V14.7z"/>
		<path class="st0" d="M298.2,30c0.1,2.2,0.5,4.2,1.1,6s1.4,3.3,2.5,4.5s2.5,2.2,4.2,2.8s3.7,1,6,1c1.8,0,3.5-0.3,5.1-0.8
			c1.7-0.5,3.1-1.2,4.4-1.9l1.6,3.1c-1,0.5-1.9,1-2.9,1.4s-1.9,0.8-2.8,1s-1.9,0.5-3,0.6c-1,0.1-2.2,0.2-3.4,0.2
			c-2.8,0-5.3-0.5-7.4-1.4s-3.9-2.2-5.3-4c-1.4-1.7-2.5-3.9-3.2-6.4s-1.1-5.4-1.1-8.7c0-3,0.4-5.6,1.2-8c0.8-2.4,1.9-4.4,3.3-6
			s3.2-2.9,5.2-3.8c2-0.9,4.3-1.3,6.8-1.3c1.8,0,3.6,0.3,5.3,0.9c1.7,0.6,3.2,1.4,4.5,2.5s2.4,2.3,3.2,3.8c0.8,1.5,1.2,3.1,1.2,4.9
			c0,1.5-0.2,2.8-0.6,4s-1.1,2.2-2.1,3s-2.2,1.4-3.7,1.8s-3.4,0.6-5.7,0.6h-14.4L298.2,30L298.2,30z M310.5,12.1
			c-1.8,0-3.4,0.3-4.9,1s-2.7,1.6-3.8,2.8c-1.1,1.2-1.9,2.7-2.5,4.5c-0.6,1.7-1,3.7-1.2,5.8h14c1.4,0,2.6-0.1,3.7-0.2s2-0.4,2.8-0.7
			c0.8-0.4,1.3-0.9,1.7-1.6s0.6-1.6,0.6-2.8c0-1.6-0.3-2.9-1-4s-1.5-2-2.5-2.8c-1-0.7-2.2-1.2-3.4-1.6
			C312.8,12.3,311.7,12.1,310.5,12.1z"/>
		<path class="st0" d="M332.6,14.7c0.7-0.5,1.7-1.1,2.9-1.8c1.2-0.7,2.6-1.4,4.2-2.1c1.6-0.7,3.3-1.2,5.2-1.7c1.9-0.5,3.9-0.7,6-0.7
			c2.2,0,4,0.4,5.5,1.2s2.7,1.8,3.6,3.1s1.5,2.8,1.9,4.5s0.6,3.4,0.6,5.2v25h-4.1V22.3c0-1.1-0.1-2.3-0.3-3.5
			c-0.2-1.2-0.6-2.3-1.3-3.3c-0.6-1-1.5-1.8-2.6-2.4s-2.5-1-4.3-1c-1.2,0-2.4,0.2-3.7,0.5c-1.3,0.3-2.5,0.7-3.7,1.2s-2.3,1-3.3,1.5
			s-1.9,1-2.5,1.5v30.6h-4.1L332.6,14.7L332.6,14.7z"/>
	</g>
	<g>
		<path class="st1" d="M0,0v54.9h56.1V0H0z M48,45.5c-0.2,0.1-0.6,0.3-1,0.6s-1,0.6-1.6,0.9c-0.6,0.3-1.3,0.5-2.1,0.8
			c-0.8,0.2-1.6,0.3-2.6,0.3c-0.8,0-1.5-0.2-2-0.5c-0.5-0.4-1-0.8-1.3-1.5c-0.3,0.2-0.7,0.5-1.2,0.7c-0.4,0.2-0.9,0.5-1.4,0.6
			c-0.5,0.2-1,0.3-1.6,0.5c-0.4,0.1-1,0.1-1.7,0.1c-0.9,0-1.6-0.2-2.1-0.5c-0.6-0.3-1-0.8-1.3-1.3s-0.5-1.1-0.7-1.8
			c-0.1-0.7-0.2-1.3-0.2-2v-29c0-0.3,0-0.7,0-1c0-0.4,0-0.8,0-1.1c0-0.4-0.1-0.7-0.2-1.1c-0.1-0.4-0.3-0.7-0.5-0.9
			C26.3,9,26,8.8,25.6,8.6s-0.8-0.2-1.4-0.2c-0.5,0-1,0.1-1.5,0.2c-0.5,0.1-1,0.3-1.5,0.5S20.3,9.5,20,9.8c-0.4,0.2-0.7,0.4-0.9,0.6
			c0.1,0.7,0.2,1.5,0.2,2.3V28h-1.7V12.8c0-0.4,0-0.9,0-1.4s-0.2-1-0.3-1.5c-0.2-0.4-0.5-0.8-0.9-1.1s-1-0.5-1.7-0.5
			c-0.5,0-1,0.1-1.5,0.2c-0.5,0.1-1,0.3-1.4,0.5S11,9.4,10.6,9.6C10.3,9.8,10,10,9.8,10.1V28H8.1V9.5c0.2-0.1,0.6-0.4,1-0.6
			s1-0.6,1.6-0.9c0.6-0.3,1.3-0.5,2.1-0.8c0.8-0.2,1.6-0.3,2.6-0.3c0.8,0,1.5,0.2,2,0.5s1,0.8,1.3,1.5c0.3-0.2,0.7-0.5,1.2-0.7
			c0.4-0.2,0.9-0.5,1.4-0.6s1-0.3,1.6-0.5c0.6-0.1,1.2-0.2,1.8-0.2c0.9,0,1.6,0.2,2.1,0.5s1,0.8,1.3,1.3s0.5,1.1,0.7,1.8
			c0.1,0.7,0.2,1.3,0.2,2v29c0,0.3,0,0.7,0,1c0,0.4,0,0.8,0.1,1.1c0,0.4,0.1,0.7,0.2,1.1c0.1,0.3,0.3,0.7,0.5,0.9
			c0.2,0.3,0.5,0.5,0.9,0.6c0.4,0.2,0.8,0.2,1.4,0.2c0.5,0,1-0.1,1.5-0.2c0.5-0.1,1-0.3,1.4-0.5c0.5-0.2,0.9-0.4,1.2-0.7
			c0.4-0.2,0.7-0.4,0.9-0.6c-0.1-0.7-0.2-1.5-0.2-2.3V26.8h1.7V42c0,0.4,0,0.9,0.1,1.4c0,0.5,0.2,1,0.3,1.5c0.2,0.5,0.5,0.8,0.9,1.1
			s1,0.5,1.7,0.5c0.5,0,1-0.1,1.5-0.2c0.5-0.1,1-0.3,1.4-0.5s0.8-0.4,1.2-0.6c0.4-0.2,0.7-0.4,0.9-0.6V26.8H48V45.5z"/>
	</g>
</g>
</svg>
