<svg xmlns="http://www.w3.org/2000/svg" width="49.809" height="49.808" viewBox="0 0 49.809 49.808"><defs><style>.a{fill:#fff;}</style></defs><path class="a" d="M49.079,4.834H26.341V.73a.73.73,0,0,0-.73-.73H21.059a.73.73,0,0,0-.73.73v4.1H11.4a.73.73,0,0,0-.73.73v6.273a5.554,5.554,0,0,0-1.322.982V10.675c0-1.323-1.316-2.409-3.273-2.77V6.321a.73.73,0,0,0-.73-.73,5.585,5.585,0,0,0-3.6,1.363A4.977,4.977,0,0,0,0,10.764v3.057a.73.73,0,0,0,1.459,0V10.764A3.789,3.789,0,0,1,4.616,7.113V35.1A5.58,5.58,0,0,0,1.462,36.51c0-.994,0-18.812,0-18.812A.73.73,0,0,0,0,17.7V40.361a.727.727,0,0,0,.011.12c.072,2.14,2.052,3.739,4.664,3.739A5.584,5.584,0,0,0,7.9,43.268V45.95c0,2.466,2.466,3.859,4.675,3.859,2.345,0,4.674-1.321,4.674-3.86l0-10.316H38.03L22.889,48.523a.735.735,0,0,0,.473,1.285H45.335a.73.73,0,0,0,.73-.73V45.54a.73.73,0,0,0-1.459,0v2.81H25.345l19.261-16.4v9.564a.73.73,0,0,0,1.459,0V35.633h3.014a.73.73,0,0,0,.73-.73V5.564A.73.73,0,0,0,49.079,4.834Zm-.73,1.459v17.7H31.261V6.293ZM24.881,1.459V20.132H21.788V18.267h.53a.73.73,0,0,0,0-1.459h-.53V14.9H23a.73.73,0,0,0,0-1.459H21.788V11.525h.53a.73.73,0,1,0,0-1.459h-.53V8.154H23a.73.73,0,0,0,0-1.459H21.788V4.783h.53a.73.73,0,0,0,0-1.459h-.53V1.459ZM11.524,13.014a3.844,3.844,0,0,1,.991-.314l0,27.988A5.571,5.571,0,0,0,9.366,42.1c0-.98,0-1.738,0-1.759l0-23.987a3.779,3.779,0,0,1,2.165-3.338Zm4.269,30.8-.075-.042a6.614,6.614,0,0,0-3.082-.724v-.907a4.265,4.265,0,0,1,.59-.045.73.73,0,0,0,.753-.729l0-26.383c.967.239,1.814.73,1.814,1.272Zm-7.9-33.145V38.222a6.5,6.5,0,0,0-3.157-.756v-.907a4.227,4.227,0,0,1,.59-.044.73.73,0,0,0,.753-.729V9.4C7.187,9.663,7.889,10.215,7.889,10.675Zm0,30.032c0,1.114-1.472,2.055-3.215,2.055-1.829,0-3.208-1.032-3.208-2.4A3.534,3.534,0,0,1,3.273,37v1.227a.73.73,0,0,0,.8.726,5.375,5.375,0,0,1,3.041.516,1.235,1.235,0,0,1,.777,1.238Zm4.689,7.642h0c-1.828,0-3.207-1.032-3.207-2.4a3.534,3.534,0,0,1,1.806-3.361v1.227a.73.73,0,0,0,.8.726c1.238-.116,3.878.082,3.818,1.753,0,1.114-1.472,2.055-3.215,2.055Zm4.669-32.088c0-1.314-1.321-2.406-3.274-2.768V11.909a.73.73,0,0,0-.73-.73,5.284,5.284,0,0,0-1.114.122V6.293h8.2V20.862a.73.73,0,0,0,.73.73h4.552a.73.73,0,0,0,.73-.73V6.293H29.8v27.88H17.251ZM45.641,29.709a.729.729,0,0,0-.779.107l-5.119,4.358H31.261V25.449H48.349v8.725H46.065v-3.8a.73.73,0,0,0-.424-.662Z" transform="translate(0)"/><path class="a" d="M350.569,107.907h6.723a.736.736,0,0,0,.517-.215l3.361-3.359a.73.73,0,0,0,.214-.516V97.1a.74.74,0,0,0-.73-.73h-6.724a.729.729,0,0,0-.516.214l-3.36,3.357a.738.738,0,0,0-.215.517v6.714A.73.73,0,0,0,350.569,107.907Zm.73-6.714h5.263v5.255H351.3Zm6.723,4.224v-4.651l1.9-1.9v4.651Zm-3.79-7.582h4.659l-1.9,1.9h-4.658Z" transform="translate(-315.806 -86.999)"/><path class="a" d="M363.814,314.087H361.4a.73.73,0,0,0,0,1.459h2.418A.73.73,0,0,0,363.814,314.087Z" transform="translate(-325.601 -283.532)"/><path class="a" d="M367.591,284.242H361.4a.73.73,0,0,0,0,1.459h6.195A.73.73,0,0,0,367.591,284.242Z" transform="translate(-325.601 -256.59)"/><path class="a" d="M340.661,383.694l-8.809,7.5a.735.735,0,0,0,.473,1.285h8.809a.73.73,0,0,0,.73-.73v-7.5A.737.737,0,0,0,340.661,383.694Zm-.257,7.326h-6.1l6.1-5.191Z" transform="translate(-299.342 -346.211)"/></svg>