<svg xmlns="http://www.w3.org/2000/svg" width="46.709" height="49.808" viewBox="0 0 46.709 49.808"><defs><style>.a{fill:#fff;}</style></defs><path class="a" d="M62.306,290.3l-.628-1.122a2.623,2.623,0,0,0-3.635-.969c-4.034,2.416-13.834,8.164-18.76,10-4.927-1.833-14.726-7.58-18.761-10a2.623,2.623,0,0,0-3.635.969l-.627,1.122a2.633,2.633,0,0,0,.709,3.373c1.511,1.141,4.17,3.067,7.459,5.105a26.544,26.544,0,0,0,.471,10.307.73.73,0,0,0,.709.557H52.959a.73.73,0,0,0,.709-.557,26.567,26.567,0,0,0,.471-10.3c3.251-2.015,5.9-3.93,7.458-5.107A2.633,2.633,0,0,0,62.306,290.3Zm-1.588,2.209c-10.324,7.8-18.289,10.8-21.435,11.778a51.145,51.145,0,0,1-7.722-3.173.73.73,0,0,0-.653,1.3,52.132,52.132,0,0,0,8.165,3.329.73.73,0,0,0,.422,0A61.908,61.908,0,0,0,52.781,299.6a25.089,25.089,0,0,1-.4,8.577H26.186a25.068,25.068,0,0,1-.4-8.579c.82.489,1.67.978,2.546,1.46a.73.73,0,0,0,.7-1.279,96.385,96.385,0,0,1-11.187-7.277,1.168,1.168,0,0,1-.315-1.5l.627-1.121a1.163,1.163,0,0,1,1.612-.43c4.139,2.479,14.3,8.438,19.265,10.209a.73.73,0,0,0,.491,0c4.962-1.771,15.126-7.729,19.265-10.209a1.163,1.163,0,0,1,1.612.43l.627,1.122A1.168,1.168,0,0,1,60.717,292.506Z" transform="translate(-15.928 -259.832)"/><path class="a" d="M73.674,10.27c.012.237.03.475.054.711a3.985,3.985,0,0,0,3.839,3.572q.961.03,1.925.052c-.123,4.15-.149,8.366-.075,12.546a5.076,5.076,0,0,0,1.16,3.134c1.109,1.337,2.215,2.707,3.285,4.033l.734.909a2.6,2.6,0,0,0,2.032.971h0a2.6,2.6,0,0,0,2.034-.971l.684-.847c1.086-1.346,2.209-2.737,3.334-4.095a5.066,5.066,0,0,0,1.161-3.134c.033-1.871.047-3.755.04-5.6a.73.73,0,0,0-.73-.727h0a.73.73,0,0,0-.727.732c.007,1.834-.007,3.708-.04,5.568a3.6,3.6,0,0,1-.826,2.229c-1.131,1.365-2.257,2.76-3.346,4.109l-.683.846a1.152,1.152,0,0,1-.9.429h0a1.15,1.15,0,0,1-.9-.429L85,33.4c-1.073-1.329-2.183-2.7-3.3-4.047a3.611,3.611,0,0,1-.825-2.229c-.073-4.161-.047-8.358.075-12.489q2.786.054,5.582.056,2.891,0,5.777-.059c.04,1.337.07,2.684.089,4.015a.73.73,0,0,0,.729.719h.011a.729.729,0,0,0,.719-.74c-.019-1.335-.049-2.685-.089-4.026q.866-.022,1.73-.047a3.984,3.984,0,0,0,3.838-3.571c.024-.237.042-.475.054-.712a5.4,5.4,0,0,0,5.2-4.837,20.812,20.812,0,0,0,0-4.1,5.439,5.439,0,0,0-.137-.785A.729.729,0,0,0,103.742,0H69.322a.729.729,0,0,0-.707.551,5.438,5.438,0,0,0-.137.786,20.794,20.794,0,0,0,0,4.1,5.4,5.4,0,0,0,5.2,4.837Zm21.778,2.824c-5.919.184-11.921.184-17.84,0a2.522,2.522,0,0,1-2.432-2.257c-.017-.174-.03-.349-.041-.524,3.784.1,7.588.156,11.393.156s7.609-.052,11.393-.156c-.01.175-.024.35-.041.525A2.521,2.521,0,0,1,95.452,13.094ZM69.929,1.482l0-.023h33.2l0,.022a19.342,19.342,0,0,1,0,3.807h0A3.934,3.934,0,0,1,99.34,8.812c-8.5.264-17.117.264-25.616,0a3.934,3.934,0,0,1-3.794-3.523,19.341,19.341,0,0,1,0-3.806Z" transform="translate(-63.274 0)"/><path class="a" d="M291.024,26.1c.235.009.471.013.707.013s.473,0,.707-.013a2.255,2.255,0,0,0,2.162-2.162c.017-.459.017-.925,0-1.385a2.282,2.282,0,0,0-2.193-2.193c-.46-.016-.926-.016-1.385,0a2.255,2.255,0,0,0-2.162,2.162c-.017.469-.017.945,0,1.414A2.255,2.255,0,0,0,291.024,26.1Zm-.7-3.523a.79.79,0,0,1,.757-.757c.217-.008.435-.012.654-.012s.419,0,.627.011a.807.807,0,0,1,.785.785c.015.425.015.856,0,1.28a.79.79,0,0,1-.757.757c-.434.016-.874.016-1.307,0a.79.79,0,0,1-.757-.757C290.3,23.454,290.3,23.014,290.32,22.58Z" transform="translate(-262.299 -18.372)"/><path class="a" d="M355.46,26.1c.235.009.471.013.707.013s.472,0,.707-.013a2.255,2.255,0,0,0,2.162-2.162c.017-.46.017-.926,0-1.385a2.281,2.281,0,0,0-2.193-2.193c-.46-.016-.926-.016-1.385,0a2.255,2.255,0,0,0-2.162,2.162c-.017.469-.017.945,0,1.414A2.255,2.255,0,0,0,355.46,26.1Zm-.7-3.523a.79.79,0,0,1,.757-.757c.217-.008.435-.012.653-.012s.419,0,.627.011a.807.807,0,0,1,.785.785c.015.425.015.855,0,1.28a.79.79,0,0,1-.757.757c-.434.016-.874.016-1.308,0a.79.79,0,0,1-.757-.757C354.74,23.455,354.74,23.015,354.756,22.581Z" transform="translate(-320.466 -18.373)"/><path class="a" d="M55.494,151.458l2.358,1.154a2.333,2.333,0,0,0,1.028.238,2.36,2.36,0,0,0,2.044-1.175l.121-.21a2.36,2.36,0,0,0-.725-3.129l-2.179-1.465a2.353,2.353,0,0,0-3.351.776l-.3.521a2.354,2.354,0,0,0,1,3.29Zm.26-2.561.3-.521a.885.885,0,0,1,.573-.424.905.905,0,0,1,.2-.024.886.886,0,0,1,.5.153l2.179,1.465a.9.9,0,0,1,.275,1.189l-.121.21a.9.9,0,0,1-1.167.356l-2.358-1.154a.894.894,0,0,1-.381-1.25Z" transform="translate(-50.455 -132.222)"/><path class="a" d="M29.219,227.371a2.362,2.362,0,0,0,1.608.633c.053,0,.106,0,.159-.005l2.619-.18a2.36,2.36,0,0,0,2.192-2.348v-.242a2.36,2.36,0,0,0-2.192-2.348l-2.619-.18a2.353,2.353,0,0,0-2.514,2.348v.6A2.361,2.361,0,0,0,29.219,227.371Zm.712-2.321a.894.894,0,0,1,.892-.894l.063,0,2.619.18a.9.9,0,0,1,.833.892v.242a.9.9,0,0,1-.833.892l-2.619.18a.894.894,0,0,1-.955-.892Z" transform="translate(-27.252 -201.032)"/><path class="a" d="M410.421,222.88a2.36,2.36,0,0,0-2.192,2.348v.242a2.36,2.36,0,0,0,2.192,2.348l2.619.18q.08.006.159.005a2.353,2.353,0,0,0,2.355-2.353v-.6a2.353,2.353,0,0,0-2.514-2.348Zm2.782,1.274a.894.894,0,0,1,.892.894v.6a.894.894,0,0,1-.955.892l-2.619-.18a.9.9,0,0,1-.833-.892v-.242a.9.9,0,0,1,.833-.892l2.619-.18.063,0Z" transform="translate(-370.065 -201.03)"/><path class="a" d="M387.207,146.872l-2.179,1.465a2.36,2.36,0,0,0-.725,3.129l.121.21a2.36,2.36,0,0,0,2.044,1.175,2.334,2.334,0,0,0,1.028-.238l2.358-1.154a2.353,2.353,0,0,0,1-3.29l-.3-.521a2.353,2.353,0,0,0-3.351-.776Zm2.087,1.506.3.521a.894.894,0,0,1-.381,1.25l-2.358,1.154a.9.9,0,0,1-1.167-.356h0l-.121-.209a.9.9,0,0,1,.275-1.189l2.179-1.465a.886.886,0,0,1,.5-.153.905.905,0,0,1,.2.024A.885.885,0,0,1,389.295,148.378Z" transform="translate(-348.185 -132.223)"/></svg>