<svg xmlns="http://www.w3.org/2000/svg" width="48.252" height="48.252" viewBox="0 0 48.252 48.252"><defs><style>.a{fill:#fff;}</style></defs><path class="a" d="M42.3,27.886A10.093,10.093,0,0,0,36.482,8.713,2.33,2.33,0,0,0,34.243,7H31.13A3.9,3.9,0,0,0,27.239,10.9V26.461a3.882,3.882,0,0,0,2.7,3.685A9.371,9.371,0,0,0,28.017,35.8v3.978l-7-6V23.348a2.338,2.338,0,0,0-2.335-2.335V13.23a3.9,3.9,0,0,0-3.891-3.891H12.452V7.783H10.587L11.823,6.34,10.485,3.665,4.575,6.2,3.8,0H0V48.252H6.226V22.569H4.01L4.563,18.7l5.922,2.538,1.338-2.675L7,12.942v-.49h5.448V10.9h2.335a2.338,2.338,0,0,1,2.335,2.335v7.783a2.338,2.338,0,0,0-2.335,2.335V42.026a2.338,2.338,0,0,0,2.335,2.335h1.557a2.336,2.336,0,0,0,2.146-1.417L25.616,47.1a4.733,4.733,0,0,0,3.1,1.156h0c.026,0,.053,0,.08,0v0H46.7V35.8A9.375,9.375,0,0,0,42.3,27.886ZM4.67,24.126V46.7H1.557V24.126Zm.778-12.74v2.132l4.521,5.273-.219.438L4.829,17.122H3.217l-.778,5.448H1.557V1.557h.869L3.2,7.783H4.829l4.92-2.108.219.438ZM10.9,10.9H7.918L9.252,9.339H10.9Zm25.683-.62A8.546,8.546,0,0,1,43.031,25.69l-1.048-.63a4.746,4.746,0,0,1-2.244-3.381,3.113,3.113,0,0,0-.247-6.06l-.8-2.388H36.578Zm0,4.512h1l.778,2.335h.561a1.557,1.557,0,0,1,0,3.113h-.778v.778A6.309,6.309,0,0,0,41.182,26.4l.283.17a8.524,8.524,0,0,1-3.33.674,8.611,8.611,0,0,1-1.557-.158ZM28.8,26.461V24.126H31.13a2.338,2.338,0,0,0,2.335-2.335v-.778H31.909v.778a.78.78,0,0,1-.778.778H28.8V14.787H31.13a.78.78,0,0,1,.778.778v3.891h1.557V15.565A2.338,2.338,0,0,0,31.13,13.23H28.8V10.9A2.338,2.338,0,0,1,31.13,8.561h3.113a.78.78,0,0,1,.778.778V28.017a.78.78,0,0,1-.778.778H31.13A2.338,2.338,0,0,1,28.8,26.461ZM16.343,23.348a.78.78,0,0,1,.778-.778h1.557a.78.78,0,0,1,.778.778v.778H16.343Zm0,2.335h3.113v7.162a3.444,3.444,0,0,0-.988-.157h-.231a3.431,3.431,0,0,0-1.894.571V25.683Zm3.113,16.343a.78.78,0,0,1-.778.778H17.122a.78.78,0,0,1-.778-.778V39.061l3.113,2.7Zm9.258,4.67h0a3.176,3.176,0,0,1-2.08-.776L17,37.567a1.893,1.893,0,0,1,1.241-3.324h.231A1.894,1.894,0,0,1,19.7,34.7l10.145,8.7,1.013-1.182-1.038-.89,3.645-3.644,2.791,2.791-5.3,5.3A3.156,3.156,0,0,1,28.715,46.7Zm5.851-10.117,4.091-4.091a1.973,1.973,0,1,1,2.791,2.79l-4.091,4.091ZM45.139,46.7H32.231L42.549,36.377a3.53,3.53,0,1,0-4.993-4.991l-7.983,7.982V35.8a7.7,7.7,0,0,1,2.238-5.448h2.431a2.33,2.33,0,0,0,2.238-1.708,10.217,10.217,0,0,0,1.653.152,10.1,10.1,0,0,0,2.1-.223,7.807,7.807,0,0,1,4.9,7.227Z"/><rect class="a" width="2" height="1" transform="translate(30.252 9.689)"/></svg>