<svg xmlns="http://www.w3.org/2000/svg" width="47" height="47" viewBox="0 0 47 47"><defs><clipPath id="4q8ta"><path fill="#fff" d="M0 23.5C0 10.521 10.521 0 23.5 0S47 10.521 47 23.5 36.479 47 23.5 47 0 36.479 0 23.5z"/></clipPath></defs><g><g><path fill="#fff" d="M0 23.5C0 10.521 10.521 0 23.5 0S47 10.521 47 23.5 36.479 47 23.5 47 0 36.479 0 23.5z"/><path fill="none" stroke="#1f487d" stroke-miterlimit="20" stroke-width="24" d="M0 23.5C0 10.521 10.521 0 23.5 0S47 10.521 47 23.5 36.479 47 23.5 47 0 36.479 0 23.5z" clip-path="url(&quot;#4q8ta&quot;)"/></g></g></svg>