<svg xmlns="http://www.w3.org/2000/svg" width="21.869" height="21.907" viewBox="0 0 21.869 21.907"><defs><style>.a{fill:none;stroke:#fff;stroke-linecap:round;stroke-linejoin:round;stroke-width:2px;}</style></defs><path class="a" d="M15.409,5.285a4.731,4.731,0,0,1,3.737,3.737M15.409,1.5a8.515,8.515,0,0,1,7.522,7.512m-.946,7.55V19.4a1.892,1.892,0,0,1-2.063,1.892,18.724,18.724,0,0,1-8.165-2.9A18.45,18.45,0,0,1,6.08,12.712a18.724,18.724,0,0,1-2.9-8.2A1.892,1.892,0,0,1,5.058,2.446H7.9A1.892,1.892,0,0,1,9.789,4.073a12.148,12.148,0,0,0,.662,2.659,1.892,1.892,0,0,1-.426,2l-1.2,1.2A15.138,15.138,0,0,0,14.5,15.607l1.2-1.2a1.892,1.892,0,0,1,2-.426,12.148,12.148,0,0,0,2.659.662A1.892,1.892,0,0,1,21.985,16.562Z" transform="translate(-2.167 -0.396)"/></svg>