<svg xmlns="http://www.w3.org/2000/svg" width="21" height="21" viewBox="0 0 21 21"><g><g><path fill="#1f487d" d="M20.134 16.14c-.776-.775-2.64-1.942-3.559-2.38-1.066-.513-1.457-.502-2.212.042-.628.454-1.035.876-1.758.718-.723-.153-2.149-1.236-3.532-2.614-1.383-1.383-2.46-2.808-2.613-3.532-.154-.728.269-1.13.718-1.758.543-.755.56-1.145.042-2.212-.438-.924-1.6-2.782-2.381-3.558C4.063.07 3.889.238 3.46.392c0 0-.634.253-1.262.67-.776.517-1.21.95-1.515 1.6-.301.65-.65 1.858 1.124 5.015 1.431 2.55 2.835 4.483 4.92 6.563l.006.005.005.006c2.086 2.085 4.013 3.49 6.563 4.92 3.157 1.774 4.366 1.426 5.016 1.125.649-.301 1.082-.734 1.6-1.515.416-.629.67-1.262.67-1.262.153-.428.327-.602-.454-1.378z"/></g></g></svg>